<svg xmlns="http://www.w3.org/2000/svg" version="1.1" xmlns:xlink="http://www.w3.org/1999/xlink" xmlns:svgjs="http://svgjs.dev/svgjs" width="100%" height="100%" viewBox="0 0 1000 600"><rect width="1000" height="600" x="0" y="0" fill="#d2302c"/><g><rect width="333.3333333333333" height="333.3333333333333" y="287.3076661001146" fill="#f7f7f9" transform="matrix(0.4715460632350639,0,0,0.4715460632350639,0,85.93018774147953)" x="265.08544921875"/><path d="M383.3126370759255 379.17908041724263L383.3126370759255 379.17908041724263L383.3126370759255 387.84450045616427Q374.9813591978878 387.84450045616427 371.92952746181516 390.9854367684726Q368.87769572574246 394.10409693672204 368.87769572574246 401.477500620226L368.87769572574246 401.477500620226L368.87769572574246 430.19145031217965Q369.03362873415495 436.76291280956235 367.830716954973 440.61668573175626Q366.6278051757911 444.47045865395023 363.5091450075417 446.5421400514302Q360.39048483929224 448.63609759296907 354.5986873839719 449.7499047959153L354.5986873839719 449.7499047959153Q360.54641784770473 451.5319963206293 363.75418259218986 453.7596107265217Q366.96194733667494 456.0095012764731 368.2316875480337 459.5514081818421Q369.5237039034513 463.07103894315213 369.5237039034513 468.6846272460011L369.5237039034513 468.6846272460011L369.5237039034513 506.68772901052625Q369.5237039034513 513.9051996856178 372.57553563952393 517.0461359979261Q375.6273673755966 520.1647961661756 383.95864525363436 520.1647961661756L383.95864525363436 520.1647961661756L383.95864525363436 528.8302162050973Q374.17941801176653 529.476224382806 368.0757545396212 527.2263338328546Q361.99436721153484 524.9764432829032 359.18757306011037 520.008863157763Q356.38077890868584 515.0412830326229 356.38077890868584 507.4896701966475L356.38077890868584 507.4896701966475L356.38077890868584 466.43473669604975Q356.38077890868584 462.26909775703086 355.3338001379164 460.26424479172766Q354.28682136714696 458.25939182642446 352.12603539343127 457.1455846234782Q349.96524941971563 456.0095012764731 346.4233425143466 454.7397610651144L346.4233425143466 454.7397610651144L346.4233425143466 444.78232467077515Q350.27711543654056 443.5125844594165 352.28196840184376 442.6215386970595Q354.28682136714696 441.7304929347025 354.99965797703254 439.5697069609868Q355.73477073097706 437.4089209872712 355.73477073097706 432.441340862131L355.73477073097706 432.441340862131L355.73477073097706 400.51962642569225Q355.73477073097706 392.9902897337758 358.54156488240153 388.0004334645767Q361.348359033826 383.03285333943654 367.4297463619124 380.7161343573084Q373.5334098340577 378.37713923112136 383.3126370759255 379.17908041724263ZM457.5813013683797 391.6982733783582L468.8084779740776 391.6982733783582L405.7669902873214 512.947325491084L394.53981368162346 512.947325491084L457.5813013683797 391.6982733783582ZM480.191587588188 387.84450045616427L480.191587588188 379.17908041724263Q490.1267478384683 378.37713923112136 496.1413067343779 380.7161343573084Q502.1558656302875 383.03285333943654 504.962659781712 388.0004334645767Q507.76945393313645 392.9902897337758 507.76945393313645 400.51962642569225L507.76945393313645 400.51962642569225L507.76945393313645 432.441340862131Q507.76945393313645 437.4089209872712 508.504566687081 439.5697069609868Q509.2174032969666 441.7304929347025 511.2222562622698 442.6215386970595Q513.227109227573 443.5125844594165 517.0808821497669 444.78232467077515L517.0808821497669 444.78232467077515L517.0808821497669 454.7397610651144Q513.5612513884569 456.0095012764731 511.3113608385055 457.1455846234782Q509.0614702885541 458.25939182642446 508.10359609402036 460.26424479172766Q507.1457218994866 462.26909775703086 507.1457218994866 466.43473669604975L507.1457218994866 466.43473669604975L507.1457218994866 507.4896701966475Q507.1457218994866 515.0412830326229 504.33892774806213 520.008863157763Q501.53213359663766 524.9764432829032 495.517574700728 527.2263338328546Q489.50301580481846 529.476224382806 479.5455794104792 528.8302162050973L479.5455794104792 528.8302162050973L479.5455794104792 520.1647961661756Q488.05506644098836 520.1647961661756 491.01779360082526 517.0461359979261Q493.9805207606623 513.9051996856178 493.9805207606623 506.68772901052625L493.9805207606623 506.68772901052625L493.9805207606623 468.6846272460011Q494.1364537690747 463.07103894315213 495.4284701244924 459.5514081818421Q496.72048647990994 456.0095012764731 499.92825122439507 453.7596107265217Q503.1360159688802 451.5319963206293 508.90553728014163 449.7499047959153L508.90553728014163 449.7499047959153Q503.2919489772927 448.63609759296907 500.1510126649843 446.5421400514302Q497.0323524967349 444.47045865395023 495.829440717553 440.61668573175626Q494.62652893837105 436.76291280956235 494.62652893837105 430.19145031217965L494.62652893837105 430.19145031217965L494.62652893837105 401.477500620226Q494.62652893837105 394.10409693672204 491.6638017785341 390.9854367684726Q488.70107461869713 387.84450045616427 480.191587588188 387.84450045616427L480.191587588188 387.84450045616427Z " fill="#d2302c" transform="matrix(0.4715460632350639,0,0,0.4715460632350639,0,85.93018774147953)"/><path d="M738.5112340780757 379.20706992304304L738.5112340780757 379.20706992304304Q747.7334998367122 379.20706992304304 754.3374567048841 379.6143624171153Q760.941413573056 380.02165491118757 766.498046885042 380.98170150435794Q772.0255878760229 381.91265577652314 777.9022367190656 383.39636414778636L777.9022367190656 383.39636414778636L776.0112358537301 397.41886287227464Q769.7272945166151 396.7788318101611 764.4033997726704 396.37153931608884Q759.0504127077204 395.96424682201655 752.9701176176414 395.7315082539752Q746.8898225275625 395.52786200693913 738.5112340780757 395.52786200693913L738.5112340780757 395.52786200693913Q724.4887353535875 395.52786200693913 716.3137931511368 400.96812603490446Q708.1388509486862 406.437482383875 704.705957070077 419.2090113051413Q701.2439708704627 431.98054022640764 701.2439708704627 453.9743349063104L701.2439708704627 453.9743349063104Q701.2439708704627 475.9681295862132 704.705957070077 488.73965850747953Q708.1388509486862 501.5111874287458 716.3137931511368 506.9805437777164Q724.4887353535875 512.4208078056818 738.5112340780757 512.4208078056818L738.5112340780757 512.4208078056818Q751.9227940614556 512.4208078056818 761.0286905360715 511.8971460275888Q770.1636793316925 511.3734842494959 778.9495602752515 510.1225144462739L778.9495602752515 510.1225144462739L780.840561140587 523.941366923726Q771.8219416289867 526.44330653017 762.3087526602985 527.6069993703766Q752.7664713706054 528.7415998895779 738.5112340780757 528.7415998895779L738.5112340780757 528.7415998895779Q717.7975015224001 528.7415998895779 705.3168958111854 521.5267042802975Q692.865382420976 514.3118086710173 687.3087491089899 497.961924266116Q681.7521157970039 481.61203986121467 681.7521157970039 453.9743349063104L681.7521157970039 453.9743349063104Q681.7521157970039 426.3366299514061 687.3087491089899 409.98674554650484Q692.865382420976 393.63686114160356 705.3168958111854 386.42196553232327Q717.7975015224001 379.20706992304304 738.5112340780757 379.20706992304304ZM856.0442109389319 378.9743313550017L856.0442109389319 378.9743313550017Q871.7540642817196 378.9743313550017 882.750961621671 382.75633308567285Q893.7478589616225 386.53833481634393 900.3227235087891 395.2078464758823Q906.926680376961 403.9064504564259 909.9813740825031 418.36533399599165Q913.0069754670399 432.82421753555735 913.0069754670399 453.9743349063104L913.0069754670399 453.9743349063104Q913.0069754670399 475.1244522770635 909.9813740825031 489.58333581662924Q906.926680376961 504.04221935619495 900.3227235087891 512.7408233367385Q893.7478589616225 521.410334996277 882.750961621671 525.192336726948Q871.7540642817196 528.9743384576191 856.0442109389319 528.9743384576191L856.0442109389319 528.9743384576191Q840.3343575961442 528.9743384576191 829.3374602561928 525.192336726948Q818.3405629162414 521.410334996277 811.620236764049 512.7408233367385Q804.9290029328615 504.04221935619495 801.8743092273195 489.58333581662924Q798.8487078427826 475.1244522770635 798.8487078427826 453.9743349063104L798.8487078427826 453.9743349063104Q798.8487078427826 432.82421753555735 801.8743092273195 418.36533399599165Q804.9290029328615 403.9064504564259 811.620236764049 395.2078464758823Q818.3405629162414 386.53833481634393 829.3374602561928 382.75633308567285Q840.3343575961442 378.9743313550017 856.0442109389319 378.9743313550017ZM856.0442109389319 395.52786200693913L856.0442109389319 395.52786200693913Q841.7889736464024 395.52786200693913 833.5267544809362 400.96812603490446Q825.2354429944648 406.437482383875 821.7734567948506 419.0926420211207Q818.3405629162414 431.7768939793715 818.3405629162414 453.9743349063104L818.3405629162414 453.9743349063104Q818.3405629162414 475.9681295862132 821.7734567948506 488.73965850747953Q825.2354429944648 501.5111874287458 833.5267544809362 506.9805437777164Q841.7889736464024 512.4208078056818 856.0442109389319 512.4208078056818L856.0442109389319 512.4208078056818Q870.2703559104564 512.4208078056818 878.5616673969276 506.9805437777164Q886.8238865623937 501.5111874287458 890.285872762008 488.73965850747953Q893.7478589616225 475.9681295862132 893.7478589616225 453.9743349063104L893.7478589616225 453.9743349063104Q893.7478589616225 431.7768939793715 890.285872762008 419.0926420211207Q886.8238865623937 406.437482383875 878.5616673969276 400.96812603490446Q870.2703559104564 395.52786200693913 856.0442109389319 395.52786200693913ZM995.7455364057219 379.8180086641514L995.7455364057219 379.8180086641514Q1011.2517435014735 379.8180086641514 1022.0449945943886 383.6000103948225Q1032.8091533662987 387.35291980448847 1039.4131102344707 395.96424682201655Q1046.0170671026426 404.5464815185395 1049.0426684871793 418.7726264900639Q1052.0973621927214 433.02786378259344 1052.0973621927214 453.9743349063104L1052.0973621927214 453.9743349063104Q1052.0973621927214 474.92080603002734 1049.0426684871793 489.17604332255695Q1046.0170671026426 503.4021882940814 1039.4131102344707 511.9844229906043Q1032.8091533662987 520.5957500081324 1022.0449945943886 524.3486594177982Q1011.2517435014735 528.1306611484695 995.7455364057219 528.1306611484695L995.7455364057219 528.1306611484695Q980.8793603720837 528.1306611484695 968.195108413833 527.6069993703766Q955.5399487765874 527.0833375922837 944.2230359055792 526.2396602831338L944.2230359055792 526.2396602831338L952.1652395399885 511.1698380024597Q960.9802128045528 511.3734842494959 971.773463897468 511.69349978055266Q982.5376226693782 511.9844229906043 995.7455364057219 511.9844229906043L995.7455364057219 511.9844229906043Q1009.5643888831739 511.9844229906043 1017.7393310856246 506.66052824665957Q1025.9142732880753 501.30754118170967 1029.3762594876896 488.65238154446405Q1032.8091533662987 475.9681295862132 1032.8091533662987 453.9743349063104L1032.8091533662987 453.9743349063104Q1032.8091533662987 431.98054022640764 1029.3762594876896 419.29628826815684Q1025.9142732880753 406.64112863091117 1017.7393310856246 401.2008646029458Q1009.5643888831739 395.7315082539752 995.7455364057219 395.7315082539752L995.7455364057219 395.7315082539752Q982.7703612374194 395.7315082539752 972.3844026385764 395.96424682201655Q962.0275363607386 396.1678930690527 952.1652395399885 396.37153931608884L952.1652395399885 396.37153931608884L944.2230359055792 381.70900952948693Q955.5399487765874 380.8653322203372 968.195108413833 380.3416704422443Q980.8793603720837 379.8180086641514 995.7455364057219 379.8180086641514ZM944.2230359055792 381.70900952948693L962.638475101847 381.70900952948693L962.638475101847 526.2396602831338L944.2230359055792 526.2396602831338L944.2230359055792 381.70900952948693ZM1109.9038040299793 381.50536328245084L1109.9038040299793 381.50536328245084Q1120.3770395918377 381.50536328245084 1130.9666444377167 381.50536328245084Q1141.5271569625907 381.50536328245084 1151.9131155614336 381.8253788135076Q1162.2699818392716 382.11630202355923 1171.8995400919803 382.75633308567285L1171.8995400919803 382.75633308567285L1171.0558627828307 397.21521662523855L1113.0457746985367 397.21521662523855Q1106.5581871143854 397.21521662523855 1103.5034934088435 400.44446425681156Q1100.4778920243066 403.7028042093898 1100.4778920243066 411.0340691026907L1100.4778920243066 411.0340691026907L1100.4778920243066 496.91460070993014Q1100.4778920243066 504.2458656032311 1103.5034934088435 507.59148251882476Q1106.5581871143854 510.9370994344184 1113.0457746985367 510.9370994344184L1113.0457746985367 510.9370994344184L1171.0558627828307 510.9370994344184L1171.8995400919803 525.192336726948Q1162.2699818392716 525.8323677890617 1151.9131155614336 526.0360140360976Q1141.5271569625907 526.2396602831338 1130.9666444377167 526.3560295671546Q1120.3770395918377 526.44330653017 1109.9038040299793 526.44330653017L1109.9038040299793 526.44330653017Q1097.1322751087127 526.44330653017 1089.6846409313912 519.6357034149619Q1082.2660990750749 512.8281002997539 1082.0333605070336 501.30754118170967L1082.0333605070336 501.30754118170967L1082.0333605070336 406.64112863091117Q1082.2660990750749 394.9169232658307 1089.6846409313912 388.1965971136382Q1097.1322751087127 381.50536328245084 1109.9038040299793 381.50536328245084ZM1085.8153622377047 457.3199518219041L1085.8153622377047 442.4537757882661L1162.910012901385 442.4537757882661L1162.910012901385 457.3199518219041L1085.8153622377047 457.3199518219041ZM1196.6280129463685 466.5422175805406L1260.5147498737051 466.5422175805406L1260.5147498737051 480.1574238109566L1196.6280129463685 480.1574238109566L1196.6280129463685 466.5422175805406ZM1302.611338368175 381.70900952948693L1321.055869885448 381.70900952948693L1321.055869885448 495.8672771537443Q1321.055869885448 511.78077674356814 1313.8118819551626 519.9557189460188Q1306.5969863458822 528.1306611484695 1292.9817801154663 528.1306611484695L1292.9817801154663 528.1306611484695Q1290.247101940981 528.1306611484695 1286.5814694943306 527.8106456174125Q1282.9158370476803 527.4906300863558 1279.453850848066 526.8796913452475Q1276.0209569694566 526.2396602831338 1273.6935712890436 525.3959829739842L1273.6935712890436 525.3959829739842L1275.7882184014152 512.4208078056818L1286.2614539632737 512.4208078056818Q1302.611338368175 512.4208078056818 1302.611338368175 496.5073082158579L1302.611338368175 496.5073082158579L1302.611338368175 381.70900952948693ZM1442.5454024030062 381.70900952948693L1460.9608415992743 381.70900952948693L1460.9608415992743 470.9351580523201Q1460.9608415992743 491.88162917603705 1455.927870065381 504.65315809730333Q1450.9239908524928 517.4537793395748 1439.607077981485 523.2140588985969Q1428.2901651104767 528.9743384576191 1409.2346948520953 528.9743384576191L1409.2346948520953 528.9743384576191Q1389.7428397786366 528.9743384576191 1378.018634413556 523.2140588985969Q1366.2944290484756 517.4537793395748 1361.0578112675462 504.65315809730333Q1355.8211934866172 491.88162917603705 1355.8211934866172 470.9351580523201L1355.8211934866172 470.9351580523201L1355.8211934866172 381.70900952948693L1374.236632682885 381.70900952948693L1374.236632682885 470.9351580523201Q1374.236632682885 486.44136514807167 1377.494972635463 495.54726162268753Q1380.7533125880414 504.65315809730333 1388.2882237283784 508.5515291119951Q1395.8231348687154 512.4208078056818 1408.3910175429455 512.4208078056818L1408.3910175429455 512.4208078056818Q1420.9589002171756 512.4208078056818 1428.4065343944974 508.5515291119951Q1435.8250762508137 504.65315809730333 1439.1706931664075 495.54726162268753Q1442.5454024030062 486.44136514807167 1442.5454024030062 470.9351580523201L1442.5454024030062 470.9351580523201L1442.5454024030062 381.70900952948693ZM1547.8886967626995 379.8180086641514L1547.8886967626995 379.8180086641514Q1563.394903858451 379.8180086641514 1574.1881549513662 383.6000103948225Q1584.9814060442816 387.35291980448847 1591.5562705914483 395.96424682201655Q1598.1602274596198 404.5464815185395 1601.2149211651622 418.7726264900639Q1604.240522549699 433.02786378259344 1604.240522549699 453.9743349063104L1604.240522549699 453.9743349063104Q1604.240522549699 474.92080603002734 1601.2149211651622 489.17604332255695Q1598.1602274596198 503.4021882940814 1591.5562705914483 511.9844229906043Q1584.9814060442816 520.5957500081324 1574.1881549513662 524.3486594177982Q1563.394903858451 528.1306611484695 1547.8886967626995 528.1306611484695L1547.8886967626995 528.1306611484695Q1533.0225207290614 528.1306611484695 1520.3382687708106 527.6069993703766Q1507.683109133565 527.0833375922837 1496.3661962625567 526.2396602831338L1496.3661962625567 526.2396602831338L1504.3374922179712 511.1698380024597Q1513.1233731615303 511.3734842494959 1523.9166242544457 511.69349978055266Q1534.7098753473606 511.9844229906043 1547.8886967626995 511.9844229906043L1547.8886967626995 511.9844229906043Q1561.7075492401518 511.9844229906043 1569.8824914426023 506.66052824665957Q1578.057433645053 501.30754118170967 1581.519419844667 488.65238154446405Q1584.9814060442816 475.9681295862132 1584.9814060442816 453.9743349063104L1584.9814060442816 453.9743349063104Q1584.9814060442816 431.98054022640764 1581.519419844667 419.29628826815684Q1578.057433645053 406.64112863091117 1569.8824914426023 401.2008646029458Q1561.7075492401518 395.7315082539752 1547.8886967626995 395.7315082539752L1547.8886967626995 395.7315082539752Q1534.913521594397 395.7315082539752 1524.527562995554 395.96424682201655Q1514.170696717716 396.1678930690527 1504.3374922179712 396.37153931608884L1504.3374922179712 396.37153931608884L1496.3661962625567 381.70900952948693Q1507.683109133565 380.8653322203372 1520.3382687708106 380.3416704422443Q1533.0225207290614 379.8180086641514 1547.8886967626995 379.8180086641514ZM1496.3661962625567 381.70900952948693L1514.81072777983 381.70900952948693L1514.81072777983 526.2396602831338L1496.3661962625567 526.2396602831338L1496.3661962625567 381.70900952948693ZM1690.5283466510107 378.9743313550017L1690.5283466510107 378.9743313550017Q1697.8596115443117 378.9743313550017 1704.7835839435402 379.4107161700791Q1711.7075563427693 379.8180086641514 1718.19514392692 380.77805525732174Q1724.6827315110713 381.70900952948693 1730.7630266011506 383.39636414778636L1730.7630266011506 383.39636414778636L1728.8720257358145 397.21521662523855Q1722.3844381516633 396.57518556312493 1715.7804812834916 396.1678930690527Q1709.1765244153198 395.7315082539752 1703.0962293252405 395.64423129095974Q1697.0450265561672 395.52786200693913 1691.5756702071967 395.52786200693913L1691.5756702071967 395.52786200693913Q1679.851464842116 395.52786200693913 1671.792891923686 397.73887840333146Q1663.734319005256 399.92080247871866 1658.904993718399 406.2047438158337Q1654.1047607525475 412.4886851529488 1651.893744356155 424.2419828390344Q1649.6827279597628 435.96618820411487 1649.6827279597628 454.8180122154601L1649.6827279597628 454.8180122154601Q1649.6827279597628 476.17177583324934 1652.6210523812842 488.85602779150014Q1655.5593768028057 501.5111874287458 1662.4833492020343 507.18419002475247Q1669.3782292802575 512.8281002997539 1680.8987883983018 512.8281002997539L1680.8987883983018 512.8281002997539Q1688.8700843537165 512.8281002997539 1695.4740412218882 510.5298069403462Q1702.0489057690552 508.2315135809383 1707.809185328077 504.56588113428785Q1713.5694648870995 500.90024868763743 1719.03882123607 496.91460070993014L1719.03882123607 496.91460070993014L1721.540760842514 508.2315135809383Q1717.7587591118427 512.6244540527179 1711.183894564676 517.4537793395748Q1704.5799376965042 522.2540123054266 1695.76496443194 525.5996292210202Q1686.979083488381 528.9743384576191 1675.8658168644088 528.9743384576191L1675.8658168644088 528.9743384576191Q1659.7486710275489 528.9743384576191 1649.5954509967473 520.8866732181839Q1639.4422309659453 512.8281002997539 1634.8165519261247 496.1872926848011Q1630.219965207309 479.517392748843 1630.219965207309 453.56704241223815L1630.219965207309 453.56704241223815Q1630.219965207309 424.85292158014283 1635.9802447663312 408.6194064592622Q1641.7405243253534 392.3858913383816 1655.0357150247125 385.6946575071942Q1668.3309057240717 378.9743313550017 1690.5283466510107 378.9743313550017ZM1716.5077893086209 442.6574220353022L1734.5159360108164 442.6574220353022L1734.5159360108164 526.2396602831338L1721.1334683484415 526.2396602831338L1718.19514392692 504.88589666534466L1716.5077893086209 500.6966024406012L1716.5077893086209 442.6574220353022ZM1793.602439972301 381.50536328245084L1793.602439972301 381.50536328245084Q1804.0756755341595 381.50536328245084 1814.6361880590334 381.50536328245084Q1825.2257929049129 381.50536328245084 1835.5826591827504 381.8253788135076Q1845.9686177815934 382.11630202355923 1855.5981760343025 382.75633308567285L1855.5981760343025 382.75633308567285L1854.7544987251526 397.21521662523855L1796.7444106408589 397.21521662523855Q1790.2568230567076 397.21521662523855 1787.2021293511652 400.44446425681156Q1784.1765279666288 403.7028042093898 1784.1765279666288 411.0340691026907L1784.1765279666288 411.0340691026907L1784.1765279666288 496.91460070993014Q1784.1765279666288 504.2458656032311 1787.2021293511652 507.59148251882476Q1790.2568230567076 510.9370994344184 1796.7444106408589 510.9370994344184L1796.7444106408589 510.9370994344184L1854.7544987251526 510.9370994344184L1855.5981760343025 525.192336726948Q1845.9686177815934 525.8323677890617 1835.5826591827504 526.0360140360976Q1825.2257929049129 526.2396602831338 1814.6361880590334 526.3560295671546Q1804.0756755341595 526.44330653017 1793.602439972301 526.44330653017L1793.602439972301 526.44330653017Q1780.830911051035 526.44330653017 1773.3832768737134 519.6357034149619Q1765.9356426963918 512.8281002997539 1765.7319964493554 501.30754118170967L1765.7319964493554 501.30754118170967L1765.7319964493554 406.64112863091117Q1765.9356426963918 394.9169232658307 1773.3832768737134 388.1965971136382Q1780.830911051035 381.50536328245084 1793.602439972301 381.50536328245084ZM1769.5139981800266 457.3199518219041L1769.5139981800266 442.4537757882661L1846.5795565227018 442.4537757882661L1846.5795565227018 457.3199518219041L1769.5139981800266 457.3199518219041Z " fill="#f7f7f9" transform="matrix(0.4715460632350639,0,0,0.4715460632350639,0,85.93018774147953)"/></g></svg>